<mxfile host="app.diagrams.net" modified="2023-10-21T05:53:28.858Z" agent="Mozilla/5.0 (Windows NT 10.0; Win64; x64) AppleWebKit/537.36 (KHTML, like Gecko) Chrome/118.0.0.0 Safari/537.36" etag="LpRnxvN9oat0SF69Zjnf" version="22.0.0" type="device">
  <diagram name="PÃ¡gina-1" id="5vkWipXI4Jd7R3DipBLy">
    <mxGraphModel dx="989" dy="553" grid="1" gridSize="10" guides="1" tooltips="1" connect="1" arrows="1" fold="1" page="1" pageScale="1" pageWidth="827" pageHeight="1169" math="0" shadow="0">
      <root>
        <mxCell id="0" />
        <mxCell id="1" parent="0" />
        <mxCell id="yecwBfwort3IGkdsRdy6-21" style="edgeStyle=orthogonalEdgeStyle;rounded=0;orthogonalLoop=1;jettySize=auto;html=1;entryX=0.5;entryY=0;entryDx=0;entryDy=0;" edge="1" parent="1" source="yecwBfwort3IGkdsRdy6-2" target="yecwBfwort3IGkdsRdy6-19">
          <mxGeometry relative="1" as="geometry" />
        </mxCell>
        <mxCell id="yecwBfwort3IGkdsRdy6-2" value="imprArr(int *arr, int n)" style="ellipse;whiteSpace=wrap;html=1;" vertex="1" parent="1">
          <mxGeometry x="442.5" y="40" width="205" height="70" as="geometry" />
        </mxCell>
        <mxCell id="yecwBfwort3IGkdsRdy6-23" style="edgeStyle=orthogonalEdgeStyle;rounded=0;orthogonalLoop=1;jettySize=auto;html=1;entryX=0.5;entryY=0;entryDx=0;entryDy=0;" edge="1" parent="1" source="yecwBfwort3IGkdsRdy6-19" target="yecwBfwort3IGkdsRdy6-22">
          <mxGeometry relative="1" as="geometry" />
        </mxCell>
        <mxCell id="yecwBfwort3IGkdsRdy6-19" value="int i" style="rounded=0;whiteSpace=wrap;html=1;" vertex="1" parent="1">
          <mxGeometry x="485" y="140" width="120" height="40" as="geometry" />
        </mxCell>
        <mxCell id="yecwBfwort3IGkdsRdy6-49" style="edgeStyle=orthogonalEdgeStyle;rounded=0;orthogonalLoop=1;jettySize=auto;html=1;entryX=0.5;entryY=0;entryDx=0;entryDy=0;" edge="1" parent="1" source="yecwBfwort3IGkdsRdy6-22" target="yecwBfwort3IGkdsRdy6-38">
          <mxGeometry relative="1" as="geometry">
            <Array as="points">
              <mxPoint x="640" y="245" />
              <mxPoint x="640" y="420" />
              <mxPoint x="550" y="420" />
            </Array>
          </mxGeometry>
        </mxCell>
        <mxCell id="yecwBfwort3IGkdsRdy6-92" style="edgeStyle=orthogonalEdgeStyle;rounded=0;orthogonalLoop=1;jettySize=auto;html=1;entryX=0.5;entryY=0;entryDx=0;entryDy=0;" edge="1" parent="1" source="yecwBfwort3IGkdsRdy6-22" target="yecwBfwort3IGkdsRdy6-91">
          <mxGeometry relative="1" as="geometry" />
        </mxCell>
        <mxCell id="yecwBfwort3IGkdsRdy6-22" value="Desde i = 1&lt;br&gt;Mientras i &amp;lt; n&lt;br&gt;Incremento i++" style="shape=hexagon;perimeter=hexagonPerimeter2;whiteSpace=wrap;html=1;fixedSize=1;" vertex="1" parent="1">
          <mxGeometry x="477.5" y="205" width="135" height="80" as="geometry" />
        </mxCell>
        <mxCell id="yecwBfwort3IGkdsRdy6-38" value="return" style="ellipse;whiteSpace=wrap;html=1;" vertex="1" parent="1">
          <mxGeometry x="508" y="446" width="85" height="60" as="geometry" />
        </mxCell>
        <mxCell id="yecwBfwort3IGkdsRdy6-93" style="edgeStyle=orthogonalEdgeStyle;rounded=0;orthogonalLoop=1;jettySize=auto;html=1;entryX=0;entryY=0.5;entryDx=0;entryDy=0;" edge="1" parent="1" source="yecwBfwort3IGkdsRdy6-91" target="yecwBfwort3IGkdsRdy6-22">
          <mxGeometry relative="1" as="geometry">
            <Array as="points">
              <mxPoint x="545" y="390" />
              <mxPoint x="457" y="390" />
              <mxPoint x="457" y="245" />
            </Array>
          </mxGeometry>
        </mxCell>
        <mxCell id="yecwBfwort3IGkdsRdy6-91" value="&quot;%d, &quot;, *(arr + i)" style="shape=document;whiteSpace=wrap;html=1;boundedLbl=1;" vertex="1" parent="1">
          <mxGeometry x="485" y="320" width="120" height="50" as="geometry" />
        </mxCell>
      </root>
    </mxGraphModel>
  </diagram>
</mxfile>
